<?xml version="1.0" encoding="UTF-8"?>
<svg xmlns="http://www.w3.org/2000/svg" xmlns:xlink="http://www.w3.org/1999/xlink" width="488px" height="524px" viewBox="0 0 488.4551017545839 524.2461856965783">
  <g id="ba9ae700-8c4e-459c-9339-dc3d69e0331f">
    <g style="">
      <g id="12013c55-744d-451b-a5b0-1e89918c0cf1">
        <path style="stroke: rgb(193,193,193); stroke-width: 0; stroke-dasharray: none; stroke-linecap: butt; stroke-dashoffset: 0; stroke-linejoin: miter; stroke-miterlimit: 4; fill: rgb(208,0,255); fill-rule: nonzero; opacity: 1;" transform="matrix(1.358971 0 0 1.358996 244.227473 262.123148) matrix(1 0 0 1 -0.165 6.145)  translate(-181.12, -201.105)" d="M 116.62 31.26 L 116.94 31.46 L 117.59 32.33 L 117.37 33.05 L 116.93 33.59 L 115.87 34.59 L 115.20 35.00 L 114.99 35.00 L 113.48 35.46 L 111.95 36.20 L 110.96 36.76 L 108.83 38.00 L 107.59 38.78 L 104.99 40.44 L 103.56 41.40 L 100.61 43.40 L 99.05 44.50 L 95.86 46.76 L 94.23 47.96 L 87.59 52.93 L 84.38 55.50 L 77.77 60.78 L 75.65 62.47 L 74.73 63.20 L 73.01 64.57 L 72.40 65.05 L 68.67 68.49 L 67.55 69.71 L 67.09 70.27 L 66.25 71.34 L 65.99 71.78 L 63.87 74.21 L 63.04 74.86 L 62.63 75.09 L 61.83 75.51 L 61.47 75.60 L 59.73 76.42 L 59.42 76.77 L 59.36 76.96 L 59.30 77.34 L 59.38 77.54 L 59.30 78.32 L 58.98 79.05 L 58.72 79.49 L 57.38 81.39 L 56.44 82.36 L 54.97 84.05 L 54.18 85.16 L 53.89 85.69 L 53.38 86.73 L 53.23 87.22 L 53.00 88.18 L 53.00 88.62 L 52.82 90.36 L 52.70 90.68 L 52.63 90.75 L 52.47 90.81 L 52.39 90.72 L 51.95 90.71 L 51.51 90.94 L 51.24 91.16 L 50.05 92.22 L 49.42 92.94 L 48.19 94.45 L 47.74 95.16 L 47.33 95.85 L 47.20 96.15 L 47.00 96.70 L 47.00 96.89 L 47.26 97.68 L 47.64 98.00 L 47.88 98.00 L 48.46 97.72 L 48.99 97.28 L 49.30 96.96 L 50.66 95.47 L 51.36 94.57 L 52.71 92.72 L 53.20 91.91 L 53.64 91.14 L 53.78 90.82 L 54.00 90.25 L 54.00 90.07 L 54.28 89.65 L 54.72 89.41 L 55.04 89.31 L 56.57 89.00 L 57.55 89.00 L 60.77 88.43 L 62.54 87.46 L 63.30 86.65 L 64.51 85.61 L 65.57 84.86 L 66.18 84.49 L 68.76 83.04 L 70.00 82.56 L 74.06 80.93 L 75.39 80.38 L 75.98 80.13 L 77.09 79.66 L 77.50 79.47 L 80.54 78.34 L 82.78 77.68 L 83.65 77.51 L 85.19 76.95 L 86.41 76.32 L 87.06 75.91 L 89.71 74.03 L 90.82 72.94 L 94.13 70.12 L 95.10 69.45 L 95.49 69.23 L 96.20 68.89 L 96.42 68.87 L 97.76 68.72 L 98.54 68.59 L 98.75 68.53 L 99.39 68.38 L 100.12 68.22 L 100.59 68.13 L 102.73 67.72 L 103.95 67.49 L 107.96 66.15 L 110.19 64.72 L 111.09 63.74 L 112.66 62.27 L 113.77 61.53 L 114.42 61.24 L 115.79 60.73 L 116.64 60.53 L 118.48 60.16 L 119.63 60.00 L 125.10 58.98 L 126.95 58.54 L 127.79 58.32 L 129.38 57.87 L 130.00 57.66 L 134.37 56.18 L 136.98 55.31 L 138.15 54.93 L 140.40 54.20 L 141.41 53.88 L 143.34 53.26 L 144.21 53.00 L 147.42 52.05 L 148.75 51.70 L 151.23 51.09 L 152.34 50.86 L 156.83 49.61 L 158.35 49.07 L 159.03 48.80 L 160.33 48.25 L 160.84 47.99 L 163.23 47.09 L 165.47 46.50 L 166.86 46.21 L 169.82 45.63 L 171.52 45.37 L 175.06 44.85 L 177.00 44.62 L 182.63 43.97 L 185.89 43.62 L 187.37 43.48 L 193.01 43.00 L 196.05 42.86 L 199.17 42.74 L 200.94 42.70 L 204.64 42.63 L 206.82 42.60 L 209.07 42.58 L 210.29 42.57 L 212.81 42.56 L 214.19 42.56 L 217.02 42.55 L 218.57 42.54 L 221.76 42.54 L 223.50 42.53 L 232.78 42.56 L 238.49 42.62 L 241.12 42.67 L 246.20 42.79 L 248.50 42.86 L 252.95 43.03 L 254.93 43.14 L 258.74 43.36 L 260.40 43.49 L 263.57 43.77 L 264.91 43.93 L 267.43 44.26 L 268.44 44.45 L 270.31 44.83 L 271.00 45.04 L 273.07 45.50 L 274.83 45.75 L 275.87 45.85 L 278.06 46.03 L 279.29 46.09 L 281.84 46.20 L 283.22 46.23 L 289.02 46.28 L 292.18 46.22 L 298.62 46.04 L 301.89 45.88 L 308.40 45.49 L 311.49 45.23 L 317.50 44.67 L 320.12 44.34 L 322.67 44.00 L 323.81 43.81 L 326.00 43.44 L 326.93 43.24 L 328.69 42.83 L 329.38 42.62 L 330.64 42.19 L 331.06 41.97 L 333.31 41.35 L 335.04 41.30 L 335.75 41.47 L 338.20 41.57 L 340.05 41.26 L 340.91 40.98 L 342.54 40.35 L 343.10 39.97 L 343.60 39.58 L 343.76 39.38 L 344.00 38.98 L 344.00 38.78 L 344.17 38.08 L 344.44 37.47 L 344.64 37.11 L 345.56 35.61 L 346.13 34.85 L 347.30 33.38 L 347.82 32.86 L 348.33 32.38 L 348.54 32.23 L 348.93 32.00 L 349.07 32.00 L 349.73 32.40 L 350.00 32.99 L 350.00 33.36 L 349.87 33.85 L 349.65 34.43 L 349.49 34.83 L 349.13 35.70 L 348.90 36.23 L 348.41 37.34 L 348.13 37.98 L 346.88 40.72 L 346.15 42.29 L 344.63 45.54 L 343.82 47.23 L 342.19 50.65 L 341.38 52.30 L 339.80 55.53 L 339.08 56.96 L 337.71 59.67 L 337.16 60.70 L 336.64 61.68 L 336.43 62.06 L 336.03 62.77 L 335.88 63.00 L 335.38 63.90 L 334.95 64.74 L 334.71 65.23 L 333.71 67.40 L 333.24 68.50 L 332.77 69.56 L 332.34 70.48 L 332.08 71.04 L 330.90 73.50 L 330.17 75.00 L 328.63 78.13 L 327.78 79.83 L 326.05 83.28 L 325.17 85.00 L 322.35 90.52 L 320.78 93.62 L 320.12 94.92 L 318.87 97.38 L 318.35 98.43 L 317.35 100.41 L 316.92 101.28 L 315.36 104.46 L 314.66 105.93 L 313.26 108.91 L 312.40 110.76 L 310.98 113.62 L 310.17 115.01 L 309.82 115.46 L 309.15 116.21 L 308.85 116.37 L 308.27 116.55 L 308.00 116.45 L 307.32 116.23 L 307.08 116.20 L 307.05 116.25 L 307.08 116.39 L 307.19 116.54 L 307.48 116.87 L 307.73 117.12 L 308.45 118.40 L 308.21 119.25 L 307.73 119.84 L 307.18 120.56 L 307.02 120.86 L 306.92 120.86 L 306.01 120.63 L 305.53 120.48 L 304.41 119.94 L 303.82 119.63 L 302.46 118.76 L 301.75 118.29 L 300.10 117.06 L 299.24 116.40 L 297.28 114.79 L 296.25 113.94 L 293.93 111.92 L 290.00 108.41 L 287.78 106.39 L 283.60 102.78 L 281.55 101.04 L 277.65 97.94 L 275.73 96.45 L 272.02 93.82 L 270.18 92.56 L 266.58 90.34 L 264.79 89.28 L 261.20 87.42 L 259.40 86.53 L 255.74 84.97 L 253.89 84.23 L 250.07 82.93 L 244.05 81.21 L 242.80 80.90 L 239.59 80.39 L 237.89 80.17 L 233.94 79.84 L 231.90 79.70 L 227.45 79.55 L 225.19 79.50 L 220.46 79.52 L 215.70 79.58 L 206.32 80.20 L 204.06 80.40 L 199.86 80.91 L 194.27 81.86 L 191.25 82.50 L 185.48 83.99 L 182.64 84.76 L 177.17 86.54 L 174.46 87.47 L 169.25 89.58 L 166.66 90.67 L 161.64 93.13 L 159.15 94.40 L 154.28 97.23 L 151.86 98.70 L 147.09 101.93 L 144.71 103.60 L 139.98 107.26 L 132.89 113.25 L 130.92 115.01 L 127.26 118.58 L 125.48 120.37 L 122.17 124.03 L 120.56 125.87 L 117.58 129.67 L 116.13 131.59 L 113.45 135.58 L 112.14 137.60 L 109.72 141.81 L 108.54 143.95 L 106.36 148.44 L 105.30 150.72 L 103.33 155.53 L 100.57 163.14 L 99.84 165.34 L 98.60 169.80 L 98.02 172.05 L 97.06 176.59 L 96.62 178.87 L 95.95 183.47 L 95.65 185.77 L 95.26 190.41 L 95.10 192.73 L 94.99 197.37 L 94.97 199.70 L 95.13 204.34 L 95.24 206.65 L 95.67 211.26 L 95.87 213.08 L 95.79 212.59 L 95.49 209.87 L 95.21 207.22 L 95.13 206.02 L 95.01 203.72 L 95.01 202.75 L 94.94 200.91 L 94.84 199.83 L 94.77 199.40 L 94.61 198.62 L 94.52 198.37 L 94.32 198.00 L 94.21 198.00 L 93.60 198.64 L 93.39 199.74 L 93.38 200.66 L 93.39 201.64 L 93.42 202.24 L 93.49 203.49 L 93.56 204.22 L 93.69 205.76 L 93.79 206.64 L 93.99 208.47 L 94.12 209.50 L 94.80 214.90 L 95.24 218.16 L 95.45 219.63 L 95.87 222.47 L 96.08 223.75 L 96.49 226.21 L 96.69 227.32 L 97.10 229.45 L 97.31 230.41 L 97.73 232.26 L 97.94 233.09 L 98.81 236.20 L 99.29 237.50 L 100.71 241.35 L 101.21 242.70 L 101.44 243.33 L 101.88 244.52 L 102.06 245.00 L 102.81 246.84 L 103.45 248.26 L 103.81 249.03 L 105.40 252.25 L 106.26 253.85 L 107.98 257.00 L 108.75 258.27 L 109.49 259.47 L 109.81 259.95 L 110.41 260.81 L 110.64 261.08 L 111.38 262.44 L 111.46 263.26 L 111.25 263.49 L 111.09 263.87 L 111.41 263.80 L 111.75 263.60 L 112.65 263.46 L 113.00 263.83 L 113.00 264.22 L 113.59 265.59 L 114.45 266.60 L 115.00 267.00 L 116.41 268.32 L 117.00 269.19 L 117.00 269.48 L 117.28 270.13 L 117.71 270.77 L 118.03 271.15 L 119.54 272.84 L 120.50 273.73 L 122.97 276.30 L 123.55 277.03 L 123.72 277.32 L 124.00 277.83 L 124.00 277.97 L 124.37 278.70 L 124.91 279.00 L 125.26 279.00 L 125.95 279.24 L 126.54 279.61 L 126.88 279.88 L 128.32 281.18 L 129.00 282.00 L 130.97 284.12 L 131.53 284.61 L 131.74 284.76 L 132.13 285.00 L 132.23 285.00 L 132.73 285.20 L 133.30 285.53 L 133.68 285.77 L 134.51 286.31 L 135.00 286.64 L 136.03 287.35 L 136.60 287.75 L 139.00 289.48 L 140.27 290.44 L 142.83 292.39 L 144.00 293.34 L 144.84 293.92 L 145.58 294.36 L 146.01 294.59 L 147.85 295.52 L 148.74 295.89 L 150.86 297.10 L 151.29 297.49 L 151.38 297.67 L 151.50 297.99 L 151.43 298.12 L 151.48 298.74 L 151.97 299.00 L 152.38 299.00 L 154.26 299.34 L 155.91 299.84 L 156.68 300.16 L 159.07 300.91 L 160.48 301.16 L 160.85 301.09 L 161.64 301.20 L 161.79 301.53 L 161.63 301.79 L 161.61 302.22 L 161.79 302.55 L 161.96 302.72 L 162.84 303.44 L 163.49 303.78 L 164.88 304.42 L 165.64 304.64 L 167.14 305.00 L 167.80 305.01 L 168.69 305.13 L 169.45 305.33 L 169.88 305.47 L 171.67 306.16 L 172.50 306.59 L 175.38 307.79 L 176.58 308.16 L 177.29 308.34 L 178.79 308.70 L 179.68 308.88 L 181.56 309.26 L 182.67 309.46 L 185.01 309.86 L 186.39 310.08 L 189.28 310.53 L 190.95 310.78 L 194.48 311.30 L 196.50 311.59 L 199.70 312.02 L 201.65 312.25 L 202.56 312.34 L 206.06 312.62 L 207.78 312.65 L 211.25 312.65 L 213.22 312.55 L 215.25 312.44 L 216.37 312.36 L 218.68 312.18 L 219.97 312.06 L 231.13 310.60 L 238.10 309.18 L 241.41 308.22 L 247.94 306.14 L 251.10 304.84 L 257.38 302.05 L 260.50 300.37 L 263.54 298.73 L 265.39 297.73 L 266.22 297.28 L 269.34 295.58 L 270.58 294.89 L 272.86 293.61 L 273.73 293.11 L 275.28 292.18 L 275.82 291.83 L 276.76 291.19 L 277.02 290.95 L 277.44 290.52 L 277.49 290.37 L 277.49 290.09 L 277.37 289.98 L 277.06 289.78 L 276.82 289.69 L 276.37 289.28 L 276.83 289.10 L 277.42 289.08 L 278.60 288.85 L 278.91 288.58 L 278.75 288.42 L 278.56 287.92 L 278.64 287.51 L 278.75 287.28 L 279.42 286.30 L 279.95 285.81 L 281.12 284.87 L 281.76 284.54 L 283.05 284.00 L 283.60 284.00 L 285.49 283.56 L 286.66 282.91 L 287.00 282.50 L 287.56 281.76 L 287.74 281.41 L 287.74 281.30 L 287.68 281.11 L 287.56 281.07 L 287.25 281.00 L 287.00 281.00 L 286.45 280.93 L 286.27 280.80 L 286.28 280.68 L 286.34 280.41 L 286.47 280.21 L 286.79 279.76 L 287.04 279.45 L 287.71 278.75 L 288.07 278.49 L 288.23 278.48 L 288.54 278.51 L 288.68 278.63 L 288.98 278.94 L 289.15 279.20 L 289.53 279.72 L 289.73 279.86 L 289.79 279.83 L 289.90 279.68 L 289.93 279.51 L 289.98 279.08 L 289.98 278.75 L 290.50 277.50 L 291.28 277.00 L 291.80 277.00 L 292.68 276.75 L 293.42 276.35 L 293.84 276.05 L 295.69 274.60 L 296.71 273.61 L 298.78 271.48 L 299.76 270.30 L 301.63 267.91 L 302.34 266.75 L 303.83 264.81 L 304.30 264.36 L 304.50 264.22 L 304.88 264.00 L 305.01 264.00 L 305.70 264.26 L 306.31 264.66 L 306.67 264.95 L 308.21 266.34 L 309.02 267.21 L 310.62 269.03 L 311.25 269.90 L 311.85 270.75 L 312.06 271.12 L 312.45 271.84 L 312.54 272.12 L 313.22 273.45 L 313.79 274.00 L 314.04 274.00 L 314.50 274.44 L 314.52 275.09 L 314.36 275.50 L 314.25 276.56 L 314.51 277.00 L 314.79 277.00 L 315.07 277.20 L 315.32 277.52 L 315.48 277.77 L 316.17 278.98 L 316.61 279.86 L 317.52 281.80 L 318.02 282.96 L 319.05 285.41 L 319.56 286.75 L 321.41 291.39 L 322.87 294.96 L 323.65 296.83 L 325.22 300.58 L 325.99 302.37 L 327.50 305.87 L 328.17 307.36 L 330.04 311.73 L 331.14 314.44 L 331.58 315.60 L 332.37 317.77 L 332.62 318.56 L 332.84 319.28 L 332.90 319.56 L 333.00 320.04 L 333.00 320.17 L 333.25 321.39 L 333.62 321.74 L 333.85 321.59 L 334.24 321.71 L 334.56 322.06 L 334.74 322.35 L 335.49 323.74 L 335.85 324.64 L 336.54 326.50 L 336.75 327.35 L 336.94 328.18 L 336.98 328.52 L 337.03 329.17 L 336.99 329.39 L 337.21 330.22 L 337.64 330.78 L 337.95 330.97 L 338.43 331.55 L 338.77 332.19 L 338.92 332.61 L 339.52 334.50 L 339.69 335.58 L 340.45 338.56 L 340.77 339.35 L 340.93 339.63 L 341.25 340.12 L 341.40 340.22 L 341.95 341.24 L 341.69 342.25 L 341.24 342.97 L 340.68 344.00 L 340.61 344.33 L 340.61 344.65 L 340.44 344.76 L 339.46 345.37 L 336.82 346.89 L 336.10 347.29 L 334.46 348.18 L 333.61 348.64 L 331.71 349.65 L 330.72 350.18 L 328.54 351.31 L 327.41 351.90 L 324.92 353.17 L 323.63 353.83 L 320.83 355.25 L 319.38 355.98 L 316.24 357.55 L 314.63 358.36 L 311.14 360.10 L 305.50 362.90 L 303.70 363.79 L 299.76 365.63 L 297.74 366.55 L 293.51 368.40 L 289.26 370.24 L 280.80 373.60 L 278.75 374.39 L 274.95 375.78 L 273.11 376.44 L 269.86 377.52 L 268.33 378.01 L 265.85 378.70 L 265.29 378.84 L 264.35 379.04 L 263.23 379.19 L 262.48 379.24 L 261.01 379.47 L 259.50 379.91 L 257.75 380.61 L 256.75 380.95 L 256.67 381.02 L 256.29 381.18 L 256.08 381.27 L 255.45 381.47 L 254.76 381.67 L 252.74 382.18 L 251.64 382.44 L 248.97 383.02 L 248.31 383.15 L 248.60 383.07 L 249.15 382.90 L 249.33 382.83 L 249.63 382.71 L 249.67 382.66 L 249.70 382.29 L 249.33 382.12 L 248.97 382.08 L 248.16 382.02 L 247.62 382.02 L 246.45 382.05 L 245.76 382.10 L 242.77 382.39 L 241.08 382.65 L 237.65 383.25 L 236.00 383.65 L L 234.04 384.06 L 232.54 384.30 L 231.67 384.41 L 229.85 384.61 L 228.82 384.71 L 226.65 384.88 L 225.42 384.96 L 222.85 385.11 L 221.40 385.18 L 218.39 385.30 L 216.71 385.35 L 213.21 385.45 L 211.26 385.50 L 207.23 385.58 L 205.00 385.61 L 195.45 385.77 L 192.56 385.82 L 191.24 385.85 L 188.68 385.89 L 187.55 385.92 L 185.39 385.96 L 184.48 385.98 L 182.78 386.02 L 182.13 386.04 L 180.96 386.08 L 180.60 386.09 L 180.03 386.12 L 180.00 386.13 L 180.08 386.24 L 180.40 386.37 L 180.67 386.46 L 182.04 386.85 L 183.00 387.07 L 183.92 387.24 L 184.55 387.31 L 185.93 387.44 L 186.77 387.49 L 188.54 387.58 L 189.55 387.62 L 191.66 387.67 L 192.82 387.68 L 197.74 387.70 L 200.48 387.66 L 206.13 387.55 L 209.06 387.45 L 214.97 387.23 L 217.87 387.08 L 223.58 386.76 L 226.21 386.57 L 228.79 386.37 L 229.99 386.26 L 232.08 386.07 L 229.88 386.39 L 225.79 386.92 L 224.66 387.05 L 221.66 387.26 L 220.06 387.36 L 216.33 387.53 L 214.40 387.60 L 210.24 387.71 L 208.13 387.76 L 203.81 387.82 L 201.67 387.84 L 197.50 387.84 L 195.46 387.83 L 191.71 387.76 L 189.93 387.72 L 186.90 387.59 L 186.21 387.56 L 185.00 387.47 L 184.43 387.43 L 183.50 387.33 L 180.33 386.93 L 174.71 386.18 L 173.99 386.08 L 174.38 386.11 L 175.05 386.15 L 176.30 386.20 L 176.81 386.19 L 177.73 386.17 L 178.06 386.13 L 178.62 386.04 L 178.75 385.97 L 178.91 385.81 L 178.83 385.71 L 178.54 385.50 L 178.22 385.37 L 177.45 385.10 L 176.88 384.94 L 172.95 384.16 L 170.04 383.79 L 168.69 383.69 L 166.11 383.56 L 165.18 383.60 L 164.34 383.67 L 164.05 383.73 L 163.58 383.88 L 163.51 383.98 L 163.88 384.37 L 164.67 384.67 L 164.84 384.72 L 164.76 384.71 L 160.41 383.94 L 161.13 383.98 L 161.40 383.96 L 161.83 383.88 L 161.90 383.80 L 161.92 383.59 L 161.77 383.43 L 161.37 383.24 L 160.85 383.05 L 160.48 382.93 L 158.69 382.37 L 157.46 382.00 L 154.80 381.23 L 153.27 380.80 L 150.11 379.92 L 148.48 379.48 L 145.20 378.60 L 143.64 378.19 L 140.62 377.40 L 139.33 377.08 L 136.93 376.50 L 136.09 376.31 L 135.33 376.15 L 135.06 376.10 L 134.60 376.03 L 134.50 376.03 L 133.94 376.17 L 133.96 376.37 L 134.16 376.52 L 134.67 376.84 L 135.09 377.04 L 136.03 377.46 L 136.64 377.70 L 137.96 378.20 L 138.74 378.47 L 140.38 379.03 L 140.53 379.08 L 140.38 379.04 L 136.06 377.67 L 129.00 375.32 L 125.99 374.30 L 120.14 372.11 L 117.23 370.99 L 111.59 368.61 L 108.79 367.40 L 103.36 364.82 L 100.67 363.51 L 95.44 360.75 L 92.85 359.34 L 87.83 356.37 L 85.34 354.86 L 80.51 351.70 L 78.13 350.09 L 73.50 346.73 L 71.21 345.02 L 66.78 341.45 L 64.59 339.63 L 60.35 335.86 L 58.25 333.94 L 54.21 329.96 L 52.20 327.94 L 48.34 323.74 L 46.43 321.61 L 42.75 317.20 L 40.94 314.97 L 37.44 310.34 L 35.71 308.00 L 32.39 303.15 L 30.75 300.70 L 27.61 295.64 L 23.09 287.79 L 22.51 286.73 L 21.46 284.77 L 20.96 283.83 L 20.15 282.26 L 19.78 281.53 L 19.29 280.51 L 19.01 279.79 L 19.13 279.57 L 18.98 278.51 L 18.86 277.93 L 18.40 276.56 L 18.15 275.89 L 17.58 274.78 L 16.83 274.00 L 16.57 274.00 L 16.34 273.71 L 16.50 273.00 L 16.67 272.72 L 16.61 272.29 L 16.00 272.00 L 15.69 272.00 L 15.38 271.73 L 15.45 271.09 L 15.60 270.83 L 15.61 270.34 L 15.19 269.84 L 15.05 269.78 L 14.60 269.08 L 14.35 268.65 L 13.75 267.36 L 13.44 266.67 L 12.77 265.01 L 12.43 264.15 L 11.75 262.33 L 11.42 261.41 L 10.83 259.63 L 10.54 258.77 L 10.10 257.24 L 9.90 256.53 L 9.69 255.47 L 9.70 254.63 L 9.86 254.47 L 9.75 253.78 L 9.05 252.56 L 8.88 252.35 L 8.54 251.69 L 8.37 251.33 L 8.07 250.45 L 7.48 247.50 L 7.36 246.28 L 7.03 243.89 L 6.85 242.73 L 6.42 240.62 L 6.19 239.63 L 5.72 238.04 L 5.02 236.50 L 4.77 236.17 L 4.29 234.87 L 4.06 234.12 L 3.62 232.07 L 3.41 230.96 L 3.03 228.25 L 2.84 226.82 L 2.80 226.36 L 2.86 226.79 L 2.95 227.31 L 3.12 228.25 L 3.19 228.55 L 3.30 229.00 L 3.32 229.00 L 3.36 228.49 L 3.38 227.68 L 3.39 227.05 L 3.41 225.65 L 3.42 224.76 L 3.44 222.85 L 3.45 221.73 L 3.47 219.38 L 3.47 218.06 L 3.49 215.34 L 3.49 213.86 L 3.51 207.65 L 3.51 204.25 L 3.59 194.96 L 3.72 189.31 L 3.82 186.75 L 4.05 181.78 L 4.21 179.52 L 4.56 175.15 L 4.78 173.17 L 5.25 169.33 L 5.54 167.59 L 6.14 164.22 L 6.49 162.69 L 7.23 159.72 L 7.65 158.36 L 8.54 155.72 L 9.04 154.50 L 9.49 153.29 L 9.88 152.15 L 10.11 151.47 L 11.08 148.51 L 11.54 147.00 L 12.75 143.54 L 13.86 140.68 L 14.52 139.06 L 17.42 132.22 L 18.97 128.79 L 20.53 125.41 L 21.26 123.86 L 22.71 120.87 L 23.34 119.63 L 24.54 117.33 L 25.00 116.53 L 25.44 115.80 L 25.62 115.54 L 25.95 115.10 L 26.06 115.00 L 26.55 114.33 L 27.10 113.47 L 27.45 112.88 L 28.22 111.61 L 28.65 110.87 L 29.54 109.32 L 30.00 108.50 L 31.36 106.13 L 32.20 104.70 L 32.56 104.12 L 33.23 103.03 L 33.48 102.67 L 33.90 102.07 L 33.98 102.00 L 34.47 101.40 L 35.00 100.64 L 35.35 100.12 L 36.07 99.01 L 36.48 98.37 L 37.32 97.03 L 37.75 96.31 L 41.66 90.55 L 44.53 86.83 L 45.88 85.29 L 47.20 83.81 L 47.80 83.19 L 48.95 82.05 L 49.44 81.63 L 50.34 80.92 L 50.67 80.76 L 51.24 80.57 L 51.37 80.70 L 51.81 80.68 L 52.00 80.19 L 52.00 79.75 L 52.22 78.53 L 52.54 77.92 L 52.75 77.83 L 53.26 77.44 L 53.77 76.95 L 54.09 76.62 L 55.49 75.09 L 56.25 74.17 L 57.32 72.92 L 57.94 72.23 L 58.19 71.98 L 58.64 71.54 L 58.78 71.43 L 59.00 71.30 L 59.00 71.38 L 59.37 71.21 L 59.96 70.74 L 60.40 70.36 L 61.34 69.51 L 61.91 68.97 L 63.10 67.83 L 63.75 67.18 L 68.28 62.96 L 69.85 61.60 L 70.57 61.00 L 71.95 59.88 L 72.50 59.47 L 75.62 57.06 L 76.47 56.36 L 76.80 56.08 L 77.36 55.57 L 77.50 55.42 L 80.00 53.17 L 82.10 51.56 L 83.14 50.84 L 85.16 49.52 L 85.92 49.13 L 86.63 48.78 L 86.87 48.71 L 87.29 48.62 L 87.36 48.69 L 87.81 48.80 L 88.00 48.49 L 88.00 48.17 L 88.40 47.34 L 89.00 47.00 L 89.38 47.00 L 90.74 46.53 L 91.72 45.84 L 92.08 45.40 L 93.14 44.37 L 94.13 43.56 L 94.74 43.11 L 97.47 41.21 L 99.10 40.20 L 102.50 38.18 L 104.23 37.26 L 107.66 35.50 L 109.18 34.86 L 113.12 32.99 L 114.12 32.44 L 114.47 32.21 L 115.05 31.80 L 115.14 31.67 L 115.93 31.23 Z"/>
      </g>
      <g id="80178d3e-2e10-4d30-b0d7-40ce07189c42">
        <path style="stroke: rgb(193,193,193); stroke-width: 0; stroke-dasharray: none; stroke-linecap: butt; stroke-dashoffset: 0; stroke-linejoin: miter; stroke-miterlimit: 4; fill: rgb(208,0,255); fill-rule: nonzero; opacity: 1;" transform="matrix(1.358971 0 0 1.358996 244.227473 262.123148) matrix(1 0 0 1 0.005 -0.07)  translate(-181.29, -194.89)" d="M 183.00 387.07 L 182.04 386.85 L 180.67 386.46 L 180.40 386.37 L 180.08 386.24 L 180.00 386.13 L 180.03 386.12 L 180.60 386.09 L 180.96 386.08 L 182.13 386.04 L 182.78 386.02 L 184.48 385.98 L 185.39 385.96 L 187.55 385.92 L 188.68 385.89 L 191.24 385.85 L 192.56 385.82 L 195.45 385.77 L 205.00 385.61 L 207.23 385.58 L 211.26 385.50 L 213.21 385.45 L 216.71 385.35 L 218.39 385.30 L 221.40 385.18 L 222.85 385.11 L 225.42 384.96 L 226.65 384.88 L 228.82 384.71 L 229.85 384.61 L 231.67 384.41 L 232.54 384.30 L 234.04 384.06 L 236.00 383.65 L 237.65 383.25 L 241.08 382.65 L 242.77 382.39 L 245.76 382.10 L 246.45 382.05 L 247.62 382.02 L 248.16 382.02 L 248.97 382.08 L 249.33 382.12 L 249.70 382.29 L 249.67 382.66 L 249.63 382.71 L 249.33 382.83 L 249.15 382.90 L 248.60 383.07 L 248.00 383.24 L 246.19 383.68 L 245.20 383.91 L 242.79 384.42 L 238.75 385.20 L 238.05 385.33 L 236.35 385.58 L 235.45 385.70 L 233.40 385.93 L 232.34 386.05 L 229.99 386.26 L 228.79 386.37 L 226.21 386.57 L 223.58 386.76 L 217.87 387.08 L 214.97 387.23 L 209.06 387.45 L 206.13 387.55 L 200.48 387.66 L 197.74 387.70 L 192.82 387.68 L 191.66 387.67 L 189.55 387.62 L 188.54 387.58 L 186.77 387.49 L 185.93 387.44 L 184.55 387.31 L 183.92 387.24 Z"/>
      </g>
    </g>
  </g>
</svg>